<svg width="1470" height="1470" viewBox="0 0 1470 1470" fill="none" xmlns="http://www.w3.org/2000/svg">
<rect width="1470" height="1470" rx="147" fill="#D82B2B"/>
<path d="M307.626 672.45C286.816 628.58 253.996 568.29 262.326 488.9C273.036 386.78 346.206 308.66 406.486 258.55C392.016 305.14 383.226 365.86 402.366 431.31C404.546 438.77 406.996 445.97 409.666 452.9C412.376 446.63 416.296 439.17 422.026 431.31C426.146 425.65 430.416 420.87 434.386 416.91C436.526 446.18 444.416 467.8 450.866 481.69C478.416 541.09 524.416 556.18 554.776 625.66C555.796 627.99 562.826 644.08 567.136 661.65C588.266 747.96 536.676 824.18 501.236 888.4C470.046 944.91 432.916 1025.46 405.556 1133.14C403.426 920.54 354.816 771.88 307.646 672.45H307.626Z" fill="white"/>
<path d="M422.956 1151.14C428.686 1127.1 439.146 1091 458.946 1050.36C519.116 926.88 600.426 901.14 654.126 794.82C671.036 761.35 691.306 707.92 694.036 630.76C685.606 630.53 676.826 630.52 667.716 630.76C650.226 631.23 633.886 632.6 618.836 634.52C626.886 623.85 637.036 612.13 649.696 600.47C655.916 594.75 662.046 589.68 667.946 585.2C666.976 571.31 665.276 560.35 664.096 553.69C653.676 494.58 627.746 474.64 624.506 420.52C623.966 411.53 624.246 405.04 624.506 398.93C625.646 372.18 633.416 312.14 690.276 236C690.746 245.35 694.276 297.61 737.276 331.87C757.736 348.17 779.086 353.99 791.796 356.31C792.426 351.73 793.246 347.01 794.296 342.19C801.216 310.27 815.496 284.86 829.396 266.07C847.796 318.28 873.376 341.23 893.316 352.54C903.526 358.33 903.706 356.22 931.736 368.22C946.816 374.67 982.916 390.27 1016.96 412.46C1048.91 433.29 1052.96 443.62 1073.79 457.81C1100.33 475.89 1142.34 494.72 1209.14 495.41C1204.73 519.51 1195.28 548.3 1175.2 575.28C1101.59 674.16 954.296 655.78 944.846 654.46C950.486 660.06 957.646 666.33 966.436 672.46C975.556 678.81 984.216 683.46 991.626 686.86C971.256 761.62 950.816 871.36 959.236 1003.59C965.116 1095.97 983.466 1174.05 1002.43 1233.94H926.846C911.366 1202.91 893.626 1159.07 883.656 1104.37C875.756 1061.02 874.926 1022.81 876.456 992.8C862.816 1010.3 827.236 1060.77 826.066 1133.17C825.336 1178.57 838.436 1214.04 847.656 1233.95C842.026 1234 831.716 1234.07 818.866 1233.95C705.836 1232.87 576.396 1231.2 484.146 1187.16C470.086 1180.45 448.226 1169.03 422.956 1151.17V1151.14Z" fill="white"/>
</svg>
