<svg xmlns="http://www.w3.org/2000/svg" fill="none" viewBox="0 0 144 144"><g clip-path="url(#a)"><path fill="#D82B2B" d="M129.6 0H14.4C6.4 0 0 6.4 0 14.4v115.2c0 8 6.4 14.4 14.4 14.4h115.2c8 0 14.4-6.4 14.4-14.4V14.4c0-8-6.4-14.4-14.4-14.4Z"/><path fill="#fff" d="M30.1 65.9c-2-4.3-5.2-10.2-4.4-18 1-10 8.2-17.7 14.1-22.6a29 29 0 0 0 .3 19 11 11 0 0 1 2.5-3.5c.2 3 1 5 1.6 6.4 2.7 5.8 7.2 7.3 10.1 14 .1.3.8 1.9 1.3 3.6 2 8.5-3 16-6.5 22.2-3 5.6-6.7 13.5-9.4 24-.2-20.8-5-35.4-9.6-45.1Z"/><path fill="#fff" d="M41.4 112.8a48 48 0 0 1 3.6-10c5.9-12 13.8-14.5 19-25a38 38 0 0 0 4-16 48.2 48.2 0 0 0-7.4.4 25 25 0 0 1 4.8-4.9c0-1.3-.2-2.4-.3-3-1-5.9-3.6-7.8-4-13.1V39c.2-2.6 1-8.5 6.5-16 0 1 .4 6 4.6 9.4a12 12 0 0 0 5.4 2.4l.2-1.4c.7-3.1 2-5.6 3.4-7.4a15 15 0 0 0 6.3 8.4c1 .6 1 .4 3.8 1.6 1.4.6 5 2.1 8.3 4.3 3.2 2 3.5 3 5.6 4.4 2.6 1.8 6.7 3.7 13.2 3.7-.4 2.4-1.3 5.2-3.3 7.9C108 66 93.5 64.2 92.6 64a16 16 0 0 0 4.5 3.2 95 95 0 0 0 1.1 53.6h-7.4a47.5 47.5 0 0 1-5-23.6 22.7 22.7 0 0 0-2.8 23.6h-2.8c-11-.1-23.7-.3-32.8-4.6-1.4-.7-3.5-1.8-6-3.5Z"/></g><defs><clipPath id="a"><path fill="#fff" d="M0 0h144v144H0z"/></clipPath></defs></svg>
