<svg width="100%" height="100%" viewBox="0 0 144 144" fill="none" xmlns="http://www.w3.org/2000/svg">
<g clip-path="url(#clip0_13_85)">
<path d="M129.6 0H14.4C6.4471 0 0 6.4471 0 14.4V129.6C0 137.553 6.4471 144 14.4 144H129.6C137.553 144 144 137.553 144 129.6V14.4C144 6.4471 137.553 0 129.6 0Z" fill="#D82B2B"/>
<path d="M30.1348 65.8725C28.0963 61.575 24.8813 55.669 25.6973 47.892C26.7464 37.8885 33.9141 30.2359 39.8191 25.3271C38.4016 29.8911 37.5405 35.8391 39.4155 42.2506C39.629 42.9814 39.869 43.6867 40.1306 44.3655C40.3961 43.7513 40.7801 43.0205 41.3414 42.2506C41.745 41.6961 42.1632 41.2279 42.5521 40.84C42.7618 43.7072 43.5347 45.8251 44.1665 47.1858C46.8653 53.0045 51.3714 54.4827 54.3454 61.2889C54.4454 61.5172 55.134 63.0934 55.5562 64.8145C57.6261 73.2694 52.5724 80.7358 49.1007 87.0267C46.0454 92.5624 42.4081 100.453 39.728 111.001C39.5193 90.1752 34.7575 75.6125 30.1368 65.8725H30.1348Z" fill="white"/>
<path d="M41.4326 112.765C41.9939 110.41 43.0186 106.873 44.9582 102.892C50.8524 90.7962 58.8174 88.2747 64.0778 77.8597C65.7343 74.581 67.72 69.3471 67.9874 61.7885C67.1616 61.766 66.3015 61.765 65.4091 61.7885C63.6958 61.8346 62.0951 61.9688 60.6209 62.1569C61.4094 61.1116 62.4037 59.9635 63.6439 58.8213C64.2532 58.261 64.8537 57.7644 65.4316 57.3255C65.3366 55.9649 65.1701 54.8912 65.0545 54.2388C64.0338 48.4484 61.4937 46.4951 61.1763 41.1936C61.1234 40.3129 61.1508 39.6772 61.1763 39.0787C61.288 36.4582 62.0491 30.5768 67.6191 23.1182C67.6651 24.0341 68.0109 29.1534 72.2231 32.5095C74.2274 34.1062 76.3188 34.6764 77.5639 34.9036C77.6256 34.455 77.7059 33.9926 77.8088 33.5204C78.4867 30.3936 79.8855 27.9045 81.2471 26.0638C83.0496 31.1782 85.5554 33.4264 87.5087 34.5343C88.5089 35.1015 88.5265 34.8948 91.2723 36.0703C92.7495 36.7022 96.2858 38.2303 99.6208 40.404C102.751 42.4445 103.147 43.4564 105.188 44.8465C107.788 46.6176 111.903 48.4622 118.447 48.5298C118.015 50.8906 117.089 53.7108 115.122 56.3538C107.911 66.04 93.4823 64.2395 92.5565 64.1102C93.109 64.6587 93.8104 65.2729 94.6715 65.8734C95.5649 66.4955 96.4132 66.951 97.1391 67.284C95.1436 74.6075 93.1414 85.3575 93.9662 98.3107C94.5422 107.36 96.3397 115.009 98.1974 120.876H90.7933C89.2769 117.836 87.5391 113.541 86.5624 108.183C85.7885 103.936 85.7072 100.193 85.8571 97.2537C84.5209 98.968 81.0356 103.912 80.9209 111.004C80.8494 115.452 82.1327 118.926 83.0359 120.877C82.4844 120.881 81.4744 120.888 80.2156 120.877C69.1433 120.771 56.4635 120.607 47.4267 116.293C46.0494 115.636 43.908 114.517 41.4326 112.767V112.765Z" fill="white"/>
</g>
<defs>
<clipPath id="clip0_13_85">
<rect width="144" height="144" fill="white"/>
</clipPath>
</defs>
</svg>
