<svg width="3840" height="3840" viewBox="0 0 3840 3840" fill="none" xmlns="http://www.w3.org/2000/svg">
<rect width="3840" height="3840" fill="#D82B2B"/>
<g clip-path="url(#clip0_12_53)">
<path d="M1906.76 1929.69H1985.04V2239.89H1906.76V1929.69ZM2009.85 2176.11L2072.38 2148.36C2079.84 2160.37 2086.05 2167 2099.3 2167C2111.31 2167 2118.77 2160.79 2118.77 2148.78C2118.77 2133.45 2110.9 2126 2086.05 2117.72C2041.32 2102.39 2008.6 2070.09 2008.6 2023.7C2008.6 1965.31 2045.88 1927.21 2104.27 1927.21C2135.33 1927.21 2174.26 1947.5 2187.1 1985.19L2117.11 2017.08C2112.56 2007.14 2105.1 2004.24 2100.96 2004.24C2093.51 2004.24 2086.88 2012.94 2086.88 2021.22C2086.88 2034.06 2103.44 2041.1 2115.04 2046.07L2120.43 2048.55C2171.78 2071.33 2196.21 2097.01 2196.21 2148.36C2196.21 2200.55 2155.63 2243.2 2103.86 2243.2C2065.76 2243.2 2042.98 2226.22 2030.55 2210.9C2023.1 2201.79 2015.23 2189.36 2009.85 2176.11ZM2505.38 2239.89H2423.8L2400.19 2186.46H2307.83C2300.38 2203.86 2291.68 2222.5 2284.64 2239.89H2201.4L2326.06 1929.28H2381.97L2505.38 2239.89ZM2354.22 2070.09L2336.41 2113.57H2371.61C2365.4 2097.84 2360.43 2087.07 2354.22 2070.09ZM2528.87 2239.48V2006.31H2465.92V1929.69H2671.76V2006.31H2607.15V2239.48H2528.87ZM2692.19 1929.69H2770.47V2239.89H2692.19V1929.69Z" fill="#1E1E1E"/>
<path d="M1928.24 2332.55H1907.95V2270H1927.41C1937.51 2270 1944.78 2278.77 1944.78 2287.87C1944.78 2291.46 1943.94 2294.97 1942.19 2297.81C1945.95 2301.48 1948.2 2306.49 1948.2 2312.42C1948.2 2323.36 1939.43 2332.3 1928.24 2332.55ZM1927.82 2306.75H1923.73V2317.1H1927.82C1930.5 2317.1 1932.5 2314.76 1932.5 2311.92C1932.5 2309 1930.5 2306.75 1927.82 2306.75ZM1923.73 2292.63H1926.4C1928.49 2292.38 1929.49 2290.8 1929.49 2289.21C1929.49 2287.45 1928.33 2285.7 1926.07 2285.45H1923.73V2292.63ZM1996.05 2285.45H1990.04V2317.1H1995.63C2004.73 2317.1 2011.33 2310.5 2011.33 2301.23C2011.33 2292.05 2005.24 2285.45 1996.05 2285.45ZM1974.25 2332.55V2270H1995.63C2013.17 2270 2027.11 2284.28 2027.11 2301.23C2027.11 2318.27 2013.17 2332.55 1995.63 2332.55H1974.25ZM2089.94 2308.83H2068.98V2317.1H2089.94V2332.55H2053.19V2270H2089.94V2285.45H2068.98V2293.38H2089.94V2308.83ZM2231.89 2308.83H2210.93V2317.1H2231.89V2332.55H2195.15V2270H2231.89V2285.45H2210.93V2293.38H2231.89V2308.83ZM2258.01 2319.69L2270.62 2314.09C2272.12 2316.52 2273.38 2317.85 2276.05 2317.85C2278.47 2317.85 2279.97 2316.6 2279.97 2314.18C2279.97 2311.09 2278.39 2309.58 2273.38 2307.91C2264.36 2304.82 2257.76 2298.31 2257.76 2288.96C2257.76 2277.18 2265.28 2269.5 2277.05 2269.5C2283.32 2269.5 2291.17 2273.59 2293.75 2281.19L2279.64 2287.62C2278.72 2285.62 2277.22 2285.03 2276.38 2285.03C2274.88 2285.03 2273.54 2286.79 2273.54 2288.46C2273.54 2291.05 2276.88 2292.47 2279.22 2293.47L2280.31 2293.97C2290.66 2298.56 2295.59 2303.74 2295.59 2314.09C2295.59 2324.62 2287.41 2333.22 2276.97 2333.22C2269.29 2333.22 2264.69 2329.79 2262.19 2326.7C2260.68 2324.87 2259.1 2322.36 2258.01 2319.69ZM2321.39 2270H2337.17V2332.55H2321.39V2270ZM2384.6 2285.45H2379.34V2295.05H2384.76C2387.35 2295.05 2388.36 2292.13 2388.36 2290.04C2388.36 2288.12 2387.19 2285.45 2384.6 2285.45ZM2392.86 2332.55L2381.01 2310.42H2379.34V2332.55H2363.64V2270H2385.1C2396.37 2270 2404.14 2279.1 2404.14 2290.04C2404.14 2296.81 2401.3 2302.9 2395.95 2306.41L2410.15 2332.55H2392.86ZM2513.34 2332.55V2320.94L2535.63 2297.56C2537.56 2295.56 2538.89 2293.05 2538.89 2290.63C2538.89 2287.62 2535.97 2284.62 2532.63 2284.62C2529.37 2284.62 2525.78 2286.37 2522.61 2290.88L2513.59 2280.77C2517.85 2274.59 2523.69 2269.92 2532.63 2269.92C2544.07 2269.92 2553.26 2278.6 2553.26 2289.79C2553.26 2295.81 2550.58 2300.98 2546.24 2305.24L2533.8 2317.6H2553.51V2332.55H2513.34ZM2624.62 2291.21V2312.01C2624.62 2323.36 2615.1 2333.22 2603.16 2333.22C2591.3 2333.22 2581.78 2323.36 2581.78 2312.01V2291.21C2581.78 2279.86 2591.3 2269.92 2603.16 2269.92C2615.1 2269.92 2624.62 2279.86 2624.62 2291.21ZM2597.07 2291.38V2311.84C2597.07 2315.18 2599.82 2318.19 2603.16 2318.19C2606.59 2318.19 2609.26 2315.18 2609.26 2311.84V2291.38C2609.26 2287.96 2606.59 2284.95 2603.16 2284.95C2599.82 2284.95 2597.07 2287.96 2597.07 2291.38ZM2655.24 2332.55V2320.94L2677.54 2297.56C2679.46 2295.56 2680.79 2293.05 2680.79 2290.63C2680.79 2287.62 2677.87 2284.62 2674.53 2284.62C2671.27 2284.62 2667.68 2286.37 2664.51 2290.88L2655.49 2280.77C2659.75 2274.59 2665.59 2269.92 2674.53 2269.92C2685.97 2269.92 2695.16 2278.6 2695.16 2289.79C2695.16 2295.81 2692.48 2300.98 2688.14 2305.24L2675.7 2317.6H2695.41V2332.55H2655.24ZM2724.02 2321.94V2308.33L2735.79 2289.71L2747.9 2270.59H2762.18V2307.83H2767.53V2321.86H2762.18V2332.55H2746.82V2321.94H2724.02ZM2741.47 2307.75H2746.82V2298.56C2745.06 2301.65 2743.31 2304.41 2741.47 2307.75Z" fill="#1E1E1E"/>
<path d="M1095.63 1857.45C1074.82 1813.58 1042 1753.29 1050.33 1673.9C1061.04 1571.78 1134.21 1493.66 1194.49 1443.55C1180.02 1490.14 1171.23 1550.86 1190.37 1616.31C1192.55 1623.77 1195 1630.97 1197.67 1637.9C1200.38 1631.63 1204.3 1624.17 1210.03 1616.31C1214.15 1610.65 1218.42 1605.87 1222.39 1601.91C1224.53 1631.18 1232.42 1652.8 1238.87 1666.69C1266.42 1726.09 1312.42 1741.18 1342.78 1810.66C1343.8 1812.99 1350.83 1829.08 1355.14 1846.65C1376.27 1932.96 1324.68 2009.18 1289.24 2073.4C1258.05 2129.91 1220.92 2210.46 1193.56 2318.14C1191.43 2105.54 1142.82 1956.88 1095.65 1857.45H1095.63Z" fill="#1E1E1E"/>
<path d="M1210.96 2336.14C1216.69 2312.1 1227.15 2276 1246.95 2235.36C1307.12 2111.88 1388.43 2086.14 1442.13 1979.82C1459.04 1946.35 1479.31 1892.92 1482.04 1815.76C1473.61 1815.53 1464.83 1815.52 1455.72 1815.76C1438.23 1816.23 1421.89 1817.6 1406.84 1819.52C1414.89 1808.85 1425.04 1797.13 1437.7 1785.47C1443.92 1779.75 1450.05 1774.68 1455.95 1770.2C1454.98 1756.31 1453.28 1745.35 1452.1 1738.69C1441.68 1679.58 1415.75 1659.64 1412.51 1605.52C1411.97 1596.53 1412.25 1590.04 1412.51 1583.93C1413.65 1557.18 1421.42 1497.14 1478.28 1421C1478.75 1430.35 1482.28 1482.61 1525.28 1516.87C1545.74 1533.17 1567.09 1538.99 1579.8 1541.31C1580.43 1536.73 1581.25 1532.01 1582.3 1527.19C1589.22 1495.27 1603.5 1469.86 1617.4 1451.07C1635.8 1503.28 1661.38 1526.23 1681.32 1537.54C1691.53 1543.33 1691.71 1541.22 1719.74 1553.22C1734.82 1559.67 1770.92 1575.27 1804.96 1597.46C1836.91 1618.29 1840.96 1628.62 1861.79 1642.81C1888.33 1660.89 1930.34 1679.72 1997.14 1680.41C1992.73 1704.51 1983.28 1733.3 1963.2 1760.28C1889.59 1859.16 1742.3 1840.78 1732.85 1839.46C1738.49 1845.06 1745.65 1851.33 1754.44 1857.46C1763.56 1863.81 1772.22 1868.46 1779.63 1871.86C1759.26 1946.62 1738.82 2056.36 1747.24 2188.59C1753.12 2280.97 1771.47 2359.05 1790.43 2418.94H1714.85C1699.37 2387.91 1681.63 2344.07 1671.66 2289.37C1663.76 2246.02 1662.93 2207.81 1664.46 2177.8C1650.82 2195.3 1615.24 2245.77 1614.07 2318.17C1613.34 2363.57 1626.44 2399.04 1635.66 2418.95C1630.03 2419 1619.72 2419.07 1606.87 2418.95C1493.84 2417.87 1364.4 2416.2 1272.15 2372.16C1258.09 2365.45 1236.23 2354.03 1210.96 2336.17V2336.14Z" fill="#1E1E1E"/>
</g>
<defs>
<clipPath id="clip0_12_53">
<rect width="1741.69" height="998" fill="white" transform="translate(1049 1421)"/>
</clipPath>
</defs>
</svg>
