<svg width="981" height="437" viewBox="0 0 981 437" fill="none" xmlns="http://www.w3.org/2000/svg">
<circle cx="764.95" cy="47.77" r="32.72" fill="#80CC28"/>
<circle cx="842.71" cy="46.28" r="12.35" fill="#ED088F"/>
<circle cx="660.5" cy="39.5" r="39.5" fill="#40C1E6"/>
<circle cx="560.79" cy="54.58" r="27.9" fill="#F58113"/>
<circle cx="489.575" cy="53.815" r="9.385" fill="#76319B"/>
<path d="M93.9656 186.623C98.6268 180.689 104.24 175.615 110.791 171.393C117.328 167.179 124.621 163.954 132.622 161.69C140.62 159.454 149.173 158.335 158.271 158.335C198.267 158.335 223.471 174.489 233.908 206.819H83.2993C85.7439 199.272 89.2993 192.542 93.9656 186.623ZM104.296 307.841C88.9546 295.092 80.3043 277.942 78.3026 256.384H310.886L311.236 242.108C311.236 198.828 297.449 164.979 269.902 140.54C242.125 115.958 204.37 103.646 156.619 103.646C109.293 103.646 71.3037 116.31 42.6506 141.623C14.2075 167.315 0 200.885 0 242.387C0 284.227 14.6638 317.803 43.9944 343.13C67.0484 362.896 96.1077 374.786 130.984 379.015V322.103C120.981 318.971 112.079 314.22 104.296 307.841Z" fill="black"/>
<path d="M565.222 293.121C565.222 273.391 558.322 257.703 544.548 246.043C530.774 234.397 503.997 221.661 464.243 207.844C435.366 197.975 420.921 188.021 420.921 177.973C420.921 172.239 423.362 167.524 428.256 163.847C433.141 160.178 439.02 158.336 445.921 158.336C460.353 158.336 472.46 166.327 482.231 182.309L544.212 155.641C524.005 120.975 493.12 103.646 451.576 103.646C423.362 103.646 399.374 111.107 379.615 125.999C360.275 140.913 350.612 159.769 350.612 182.574C350.612 199.824 356.281 213.914 367.61 224.865C376.502 233.486 391.82 242.108 413.587 250.73C421.361 253.783 429.026 256.75 436.598 259.616C444.129 262.497 451.688 265.457 459.241 268.496C478.793 277.856 488.572 287.911 488.572 298.69C488.572 300.252 488.347 301.671 488.171 303.126C509.932 303.126 535.814 303.126 564.55 303.126C564.956 299.865 565.222 296.54 565.222 293.121Z" fill="black"/>
<path d="M695.736 110.92H620.779V303.126C644.785 303.126 669.953 303.126 695.736 303.126V110.92Z" fill="black"/>
<path d="M843.721 237.256C843.721 187.333 864.168 162.378 905.025 162.378C918.592 162.378 932.474 166.506 946.7 174.776L981 119.263C959.464 108.856 938.802 103.646 919.043 103.646C904.151 103.646 891.251 105.897 880.379 110.383C869.715 114.69 857.488 122.681 843.721 134.37V110.92H768.749V303.126C793.833 303.126 818.981 303.126 843.721 303.126V237.256Z" fill="black"/>
<path d="M173.089 377.295V336.544H201.873V343.439H180.918V352.476H200.417V359.335H180.918V370.422H202.624V377.295H173.089Z" fill="black"/>
<path d="M237.273 362.316L244.874 364.839C243.712 369.297 241.761 372.593 239.064 374.75C236.349 376.915 232.905 377.997 228.743 377.997C223.578 377.997 219.342 376.148 216.025 372.45C212.693 368.759 211.042 363.692 211.042 357.278C211.042 350.498 212.716 345.231 216.044 341.482C219.39 337.727 223.779 335.849 229.21 335.849C233.955 335.849 237.819 337.311 240.8 340.271C242.564 342.013 243.893 344.514 244.776 347.775L236.993 349.724C236.54 347.596 235.593 345.94 234.124 344.707C232.673 343.496 230.904 342.887 228.818 342.887C225.935 342.887 223.611 343.969 221.82 346.134C220.028 348.305 219.132 351.817 219.132 356.676C219.132 361.815 220.005 365.491 221.764 367.684C223.541 369.863 225.837 370.959 228.65 370.959C230.727 370.959 232.542 370.264 234.034 368.881C235.537 367.483 236.623 365.29 237.273 362.316Z" fill="black"/>
<path d="M261.251 356.891C261.251 361.506 262.245 365.004 264.289 367.39C266.319 369.77 268.894 370.959 272.023 370.959C275.151 370.959 277.721 369.784 279.714 367.412C281.724 365.047 282.732 361.506 282.732 356.776C282.732 352.118 281.752 348.628 279.798 346.32C277.852 344.027 275.248 342.887 272.023 342.887C268.79 342.887 266.187 344.041 264.204 346.377C262.236 348.699 261.251 352.197 261.251 356.891ZM253.152 357.185C253.152 353.021 253.748 349.538 254.944 346.721C255.82 344.65 257.024 342.772 258.55 341.124C260.076 339.476 261.755 338.257 263.574 337.448C265.996 336.38 268.79 335.849 271.96 335.849C277.67 335.849 282.247 337.713 285.691 341.432C289.12 345.159 290.828 350.341 290.828 356.97C290.828 363.549 289.135 368.702 285.719 372.428C282.303 376.134 277.76 377.997 272.052 377.997C266.268 377.997 261.671 376.148 258.27 372.45C254.86 368.759 253.152 363.664 253.152 357.185Z" fill="black"/>
<path d="M300.319 377.295V336.881H308.152V370.422H327.657V377.295H300.319Z" fill="black"/>
<path d="M336.39 377.295V336.544H365.197V343.439H344.242V352.476H363.727V359.335H344.242V370.422H365.938V377.295H336.39Z" fill="black"/>
<path d="M391.96 364.043L399.589 363.255C400.051 365.942 400.989 367.92 402.389 369.189C403.788 370.436 405.692 371.066 408.072 371.066C410.605 371.066 412.5 370.508 413.788 369.382C415.062 368.271 415.692 366.953 415.692 365.455C415.692 364.487 415.443 363.663 414.888 362.99C414.365 362.33 413.424 361.728 412.075 361.234C411.165 360.89 409.065 360.302 405.804 359.449C401.591 358.36 398.637 357.013 396.943 355.421C394.564 353.178 393.374 350.441 393.374 347.216C393.374 345.144 393.92 343.202 395.053 341.396C396.174 339.59 397.783 338.214 399.897 337.261C401.997 336.322 404.558 335.849 407.554 335.849C412.425 335.849 416.084 336.967 418.555 339.21C421.005 341.461 422.307 344.442 422.438 348.197L414.603 348.556C414.258 346.463 413.544 344.951 412.425 344.026C411.333 343.123 409.667 342.665 407.464 342.665C405.188 342.665 403.396 343.159 402.123 344.119C401.283 344.757 400.863 345.603 400.863 346.657C400.863 347.624 401.269 348.455 402.033 349.143C403.019 350.003 405.435 350.914 409.239 351.867C413.055 352.813 415.874 353.766 417.711 354.805C419.536 355.809 420.949 357.192 421.985 358.926C423.035 360.682 423.539 362.846 423.539 365.426C423.539 367.748 422.937 369.949 421.691 371.991C420.445 374.019 418.696 375.546 416.451 376.542C414.189 377.538 411.375 378.025 407.993 378.025C403.083 378.025 399.318 376.836 396.677 374.449C394.046 372.077 392.464 368.594 391.96 364.043Z" fill="black"/>
<path d="M433.24 336.545H441.093V358.618C441.093 362.123 441.177 364.38 441.359 365.427C441.709 367.096 442.506 368.437 443.766 369.447C445.026 370.45 446.762 370.959 448.946 370.959C451.163 370.959 452.836 370.486 453.985 369.54C455.105 368.58 455.785 367.397 456.014 366.007C456.252 364.617 456.37 362.316 456.37 359.084V336.545H464.217V357.944C464.217 362.847 463.993 366.308 463.582 368.308C463.153 370.343 462.369 372.049 461.235 373.439C460.088 374.822 458.562 375.94 456.644 376.75C454.746 377.589 452.257 377.997 449.184 377.997C445.474 377.997 442.66 377.546 440.743 376.65C438.825 375.754 437.313 374.579 436.207 373.145C435.088 371.705 434.36 370.2 433.996 368.63C433.492 366.279 433.24 362.847 433.24 358.274V336.545Z" fill="black"/>
<path d="M483.454 343.439V355.006H487.76C490.839 355.006 492.916 354.805 493.96 354.354C494.997 353.938 495.803 353.264 496.396 352.361C496.998 351.444 497.292 350.391 497.292 349.187C497.292 347.703 496.872 346.485 496.046 345.531C495.207 344.557 494.17 343.955 492.888 343.718C491.959 343.532 490.074 343.439 487.247 343.439H483.454ZM475.618 377.295V336.544H488.208C492.981 336.544 496.075 336.745 497.53 337.154C499.747 337.763 501.631 339.103 503.129 341.138C504.627 343.202 505.368 345.84 505.368 349.079C505.368 351.58 504.935 353.694 504.067 355.393C503.213 357.099 502.107 358.432 500.777 359.406C499.442 360.388 498.09 361.026 496.704 361.341C494.843 361.728 492.113 361.929 488.572 361.929H483.454V377.295H475.618Z" fill="black"/>
<path d="M514.965 377.295V336.544H543.75V343.439H522.801V352.476H542.3V359.335H522.801V370.422H544.5V377.295H514.965Z" fill="black"/>
<path d="M562.158 353.766H567.952C571.732 353.766 574.075 353.608 575.016 353.279C575.945 352.949 576.687 352.376 577.21 351.559C577.745 350.735 578.011 349.724 578.011 348.506C578.011 347.13 577.653 346.012 576.967 345.18C576.253 344.335 575.287 343.79 573.999 343.561C573.369 343.482 571.452 343.439 568.28 343.439H562.158V353.766ZM554.327 377.295V336.544H570.822C574.979 336.544 577.994 336.91 579.87 337.641C581.754 338.386 583.252 339.669 584.4 341.547C585.528 343.424 586.093 345.553 586.093 347.975C586.093 351.021 585.225 353.558 583.51 355.536C581.805 357.536 579.248 358.79 575.833 359.313C577.513 360.352 578.927 361.478 580.024 362.732C581.138 363.972 582.622 366.172 584.497 369.347L589.229 377.295H579.859L574.19 368.422C572.171 365.269 570.794 363.269 570.052 362.431C569.31 361.621 568.535 361.048 567.701 360.739C566.861 360.438 565.545 360.274 563.753 360.274H562.158V377.295H554.327Z" fill="black"/>
<path d="M596.381 377.295H604.234V336.542H596.381V377.295Z" fill="black"/>
<path d="M614.844 377.295V336.544H643.651V343.439H622.697V352.476H642.187V359.335H622.697V370.422H644.393V377.295H614.844Z" fill="black"/>
<path d="M654.121 336.545H661.974V358.618C661.974 362.123 662.066 364.38 662.268 365.427C662.604 367.096 663.402 368.437 664.662 369.447C665.921 370.45 667.651 370.959 669.84 370.959C672.066 370.959 673.746 370.486 674.874 369.54C675.999 368.58 676.685 367.397 676.923 366.007C677.147 364.617 677.259 362.316 677.259 359.084V336.545H685.103V357.944C685.103 362.847 684.902 366.308 684.463 368.308C684.048 370.343 683.256 372.049 682.116 373.439C680.988 374.822 679.471 375.94 677.553 376.75C675.641 377.589 673.144 377.997 670.084 377.997C666.369 377.997 663.556 377.546 661.638 376.65C659.72 375.754 658.209 374.579 657.103 373.145C655.983 371.705 655.247 370.2 654.891 368.63C654.387 366.279 654.121 362.847 654.121 358.274V336.545Z" fill="black"/>
<path d="M704.387 353.766H710.182C713.947 353.766 716.304 353.608 717.25 353.279C718.168 352.949 718.906 352.376 719.436 351.559C719.974 350.735 720.232 349.724 720.232 348.506C720.232 347.13 719.881 346.012 719.193 345.18C718.483 344.335 717.501 343.79 716.215 343.561C715.586 343.482 713.668 343.439 710.504 343.439H704.387V353.766ZM696.548 377.295V336.544H713.038C717.207 336.544 720.217 336.91 722.095 337.641C723.973 338.386 725.478 339.669 726.603 341.547C727.743 343.424 728.309 345.553 728.309 347.975C728.309 351.021 727.456 353.558 725.736 355.536C724.023 357.536 721.457 358.79 718.06 359.313C719.744 360.352 721.156 361.478 722.246 362.732C723.356 363.972 724.84 366.172 726.725 369.347L731.462 377.295H722.081L716.403 368.422C714.401 365.269 713.023 363.269 712.273 362.431C711.54 361.621 710.756 361.048 709.916 360.739C709.09 360.438 707.774 360.274 705.969 360.274H704.387V377.295H696.548Z" fill="black"/>
<path d="M738.857 377.295V336.544H767.639V343.439H746.691V352.476H766.184V359.335H746.691V370.422H768.392V377.295H738.857Z" fill="black"/>
<path d="M181.82 402.228V429.21H187.671C189.882 429.21 191.453 429.089 192.425 428.823C193.704 428.487 194.748 427.935 195.597 427.139C196.419 426.329 197.105 425.018 197.638 423.19C198.183 421.37 198.438 418.883 198.438 415.737C198.438 412.584 198.183 410.161 197.638 408.47C197.105 406.793 196.363 405.474 195.412 404.535C194.463 403.589 193.245 402.951 191.786 402.615C190.697 402.349 188.556 402.228 185.347 402.228H181.82ZM173.984 395.326H188.329C191.548 395.326 194.015 395.591 195.705 396.093C197.996 396.809 199.936 398.057 201.556 399.863C203.189 401.654 204.426 403.847 205.266 406.456C206.119 409.057 206.548 412.275 206.548 416.081C206.548 419.442 206.156 422.337 205.35 424.76C204.387 427.727 203.001 430.121 201.182 431.962C199.838 433.367 198.001 434.442 195.678 435.216C193.965 435.789 191.635 436.083 188.738 436.083H173.984V395.326Z" fill="black"/>
<path d="M216.243 409.803L214.829 402.228V395.326H222.948V402.228L221.722 409.803H216.243Z" fill="black"/>
<path d="M232.159 436.083H239.995V395.328H232.159V436.083Z" fill="black"/>
<path d="M250.697 436.083V395.326H258.317L274.221 422.538V395.326H281.497V436.083H273.644L257.967 409.502V436.083H250.697Z" fill="black"/>
<path d="M311.021 421.098V414.239H327.916V430.458C326.261 432.128 323.895 433.604 320.769 434.88C317.652 436.141 314.489 436.772 311.298 436.772C307.233 436.772 303.7 435.883 300.677 434.084C297.659 432.307 295.382 429.756 293.88 426.416C292.348 423.098 291.589 419.464 291.589 415.565C291.589 411.323 292.429 407.546 294.14 404.249C295.839 400.952 298.325 398.422 301.586 396.659C304.075 395.298 307.171 394.631 310.878 394.631C315.693 394.631 319.467 395.692 322.177 397.813C324.889 399.935 326.634 402.873 327.412 406.621L319.626 408.148C319.066 406.134 318.044 404.557 316.527 403.403C315.024 402.242 313.145 401.669 310.878 401.669C307.448 401.669 304.727 402.801 302.712 405.08C300.682 407.367 299.669 410.735 299.669 415.228C299.669 420.059 300.696 423.7 302.748 426.122C304.789 428.544 307.476 429.748 310.794 429.748C312.449 429.748 314.086 429.397 315.743 428.723C317.382 428.05 318.817 427.233 319.99 426.272V421.098H311.021Z" fill="black"/>
<path d="M338.303 436.083V395.326H367.096V402.228H346.141V411.258H365.64V418.116H346.141V429.21H367.849V436.083H338.303Z" fill="black"/>
<path d="M377.72 436.083V395.326H385.349L401.241 422.538V395.326H408.526V436.083H400.645L384.996 409.502V436.083H377.72Z" fill="black"/>
<path d="M419.723 436.083H427.564V395.328H419.723V436.083Z" fill="black"/>
<path d="M438.188 436.083V395.326H466.973V402.228H446.027V411.258H465.525V418.116H446.027V429.21H467.729V436.083H438.188Z" fill="black"/>
<path d="M477.478 395.326H485.319V417.4C485.319 420.912 485.414 423.169 485.596 424.201C485.949 425.885 486.73 427.226 488.007 428.236C489.267 429.225 490.999 429.748 493.172 429.748C495.394 429.748 497.083 429.268 498.211 428.315C499.342 427.355 500.017 426.186 500.255 424.789C500.47 423.406 500.605 421.098 500.605 417.873V395.326H508.457V416.726C508.457 421.628 508.219 425.083 507.81 427.104C507.379 429.125 506.61 430.838 505.459 432.221C504.325 433.604 502.793 434.715 500.899 435.539C498.978 436.37 496.49 436.772 493.41 436.772C489.7 436.772 486.901 436.327 484.975 435.439C483.063 434.536 481.56 433.368 480.431 431.927C479.32 430.486 478.583 428.981 478.247 427.412C477.715 425.068 477.478 421.628 477.478 417.063V395.326Z" fill="black"/>
<path d="M527.723 412.555H533.523C537.297 412.555 539.643 412.39 540.578 412.068C541.519 411.731 542.244 411.157 542.765 410.34C543.311 409.516 543.577 408.506 543.577 407.294C543.577 405.911 543.226 404.786 542.51 403.962C541.824 403.123 540.844 402.579 539.573 402.349C538.926 402.271 537.023 402.228 533.849 402.228H527.723V412.555ZM519.893 436.083V395.326H536.388C540.525 395.326 543.549 395.691 545.43 396.422C547.325 397.161 548.817 398.451 549.957 400.321C551.08 402.199 551.645 404.335 551.645 406.75C551.645 409.803 550.791 412.333 549.083 414.318C547.37 416.325 544.794 417.564 541.393 418.095C543.084 419.134 544.492 420.266 545.598 421.513C546.695 422.76 548.187 424.96 550.058 428.128L554.803 436.083H545.424L539.755 427.211C537.737 424.05 536.354 422.044 535.612 421.22C534.867 420.395 534.078 419.829 533.257 419.521C532.435 419.22 531.119 419.062 529.31 419.062H527.723V436.083H519.893Z" fill="black"/>
<path d="M621.481 402.228V429.21H627.334C629.509 429.21 631.097 429.089 632.062 428.823C633.344 428.487 634.403 427.935 635.234 427.139C636.083 426.329 636.76 425.018 637.273 423.19C637.815 421.37 638.085 418.883 638.085 415.737C638.085 412.584 637.815 410.161 637.273 408.47C636.76 406.793 636.013 405.474 635.061 404.535C634.12 403.589 632.896 402.951 631.432 402.615C630.326 402.349 628.194 402.228 624.997 402.228H621.481ZM613.616 395.326H627.978C631.194 395.326 633.672 395.591 635.36 396.093C637.636 396.809 639.596 398.057 641.219 399.863C642.84 401.654 644.075 403.847 644.926 406.456C645.783 409.057 646.203 412.275 646.203 416.081C646.203 419.442 645.794 422.337 644.999 424.76C644.025 427.727 642.653 430.121 640.839 431.962C639.495 433.367 637.647 434.442 635.327 435.216C633.605 435.789 631.295 436.083 628.389 436.083H613.616V395.326Z" fill="black"/>
<path d="M655.987 436.083V395.326H684.799V402.228H663.825V411.258H683.329V418.116H663.825V429.21H685.522V436.083H655.987Z" fill="black"/>
<path d="M721.417 412.555H727.219C730.982 412.555 733.328 412.39 734.272 412.068C735.195 411.731 735.926 411.157 736.464 410.34C737.004 409.516 737.276 408.506 737.276 407.294C737.276 405.911 736.92 404.786 736.217 403.962C735.521 403.123 734.555 402.579 733.264 402.349C732.623 402.271 730.716 402.228 727.525 402.228H721.417V412.555ZM713.573 436.083V395.326H730.075C734.238 395.326 737.242 395.691 739.115 396.422C741.008 397.161 742.516 398.451 743.65 400.321C744.773 402.199 745.358 404.335 745.358 406.75C745.358 409.803 744.484 412.333 742.771 414.318C741.046 416.325 738.507 417.564 735.101 418.095C736.777 419.134 738.191 420.266 739.283 421.513C740.389 422.76 741.886 424.96 743.762 428.128L748.487 436.083H739.115L733.432 427.211C731.425 424.05 730.053 422.044 729.316 421.22C728.575 420.395 727.78 419.829 726.94 419.521C726.125 419.22 724.804 419.062 722.998 419.062H721.417V436.083H713.573Z" fill="black"/>
<path d="M755.886 436.083V395.326H784.682V402.228H763.726V411.258H783.227V418.116H763.726V429.21H785.42V436.083H755.886Z" fill="black"/>
<path d="M795.303 436.083V395.326H802.922L818.825 422.538V395.326H826.113V436.083H818.244L802.585 409.502V436.083H795.303Z" fill="black"/>
<path d="M837.615 436.083V395.326H845.276L861.165 422.538V395.326H868.446V436.083H860.57L844.904 409.502V436.083H837.615Z" fill="black"/>
<path d="M879.877 436.083V395.326H908.68V402.228H887.718V411.258H907.226V418.116H887.718V429.21H909.411V436.083H879.877Z" fill="black"/>
<path d="M917.24 422.818L924.865 422.037C925.317 424.731 926.256 426.702 927.653 427.971C929.051 429.21 930.95 429.855 933.343 429.855C935.866 429.855 937.765 429.289 939.048 428.164C940.317 427.046 940.976 425.727 940.976 424.23C940.976 423.276 940.697 422.445 940.166 421.779C939.622 421.112 938.683 420.517 937.343 420.016C936.432 419.664 934.325 419.077 931.05 418.224C926.858 417.135 923.898 415.801 922.206 414.196C919.834 411.96 918.637 409.222 918.637 405.99C918.637 403.919 919.182 401.984 920.3 400.178C921.44 398.372 923.052 396.989 925.159 396.057C927.266 395.104 929.825 394.631 932.806 394.631C937.672 394.631 941.356 395.749 943.836 397.999C946.279 400.242 947.584 403.231 947.706 406.979L939.844 407.337C939.521 405.245 938.797 403.74 937.694 402.801C936.597 401.905 934.942 401.439 932.727 401.439C930.448 401.439 928.656 401.941 927.374 402.908C926.557 403.539 926.134 404.392 926.134 405.438C926.134 406.406 926.506 407.237 927.302 407.925C928.284 408.792 930.699 409.688 934.512 410.656C938.317 411.595 941.148 412.555 942.976 413.58C944.796 414.597 946.237 415.974 947.261 417.708C948.286 419.464 948.817 421.628 948.817 424.201C948.817 426.537 948.2 428.737 946.953 430.766C945.72 432.808 943.972 434.335 941.707 435.324C939.45 436.32 936.626 436.8 933.265 436.8C928.341 436.8 924.571 435.61 921.955 433.231C919.325 430.859 917.756 427.376 917.24 422.818Z" fill="black"/>
<path d="M558.245 422.849L565.871 422.068C566.322 424.762 567.261 426.733 568.658 428.002C570.056 429.242 571.955 429.887 574.349 429.887C576.871 429.887 578.771 429.321 580.054 428.195C581.322 427.077 581.981 425.759 581.981 424.261C581.981 423.308 581.702 422.476 581.172 421.81C580.627 421.143 579.688 420.548 578.348 420.047C577.438 419.696 575.331 419.108 572.055 418.255C567.863 417.166 564.903 415.833 563.212 414.227C560.839 411.991 559.643 409.254 559.643 406.021C559.643 403.95 560.187 402.015 561.305 400.209C562.445 398.403 564.057 397.02 566.164 396.088C568.271 395.135 570.83 394.662 573.811 394.662C578.678 394.662 582.361 395.78 584.841 398.03C587.285 400.274 588.589 403.262 588.711 407.01L580.849 407.369C580.527 405.276 579.803 403.771 578.699 402.832C577.602 401.936 575.947 401.47 573.732 401.47C571.453 401.47 569.662 401.972 568.379 402.94C567.562 403.57 567.139 404.423 567.139 405.47C567.139 406.437 567.512 407.268 568.307 407.956C569.289 408.824 571.704 409.719 575.517 410.687C579.323 411.626 582.153 412.586 583.981 413.611C585.801 414.629 587.242 416.005 588.267 417.739C589.291 419.495 589.822 421.659 589.822 424.232C589.822 426.569 589.205 428.769 587.958 430.797C586.726 432.839 584.977 434.366 582.712 435.355C580.455 436.351 577.631 436.831 574.27 436.831C569.346 436.831 565.577 435.642 562.961 433.262C560.331 430.89 558.761 427.407 558.245 422.849Z" fill="black"/>
</svg>
