<svg width="1358" height="413" viewBox="0 0 1358 413" fill="none" xmlns="http://www.w3.org/2000/svg">
<path d="M206.538 264.907L323.376 381.723L342.846 362.253L226.012 245.437L206.538 264.907Z" fill="black"/>
<path d="M245.483 225.969L362.321 342.785L381.791 323.315L264.957 206.499L245.483 225.969Z" fill="black"/>
<path d="M31.2853 89.6868L148.121 206.501L167.592 187.033L50.7591 70.2166L31.2853 89.6868Z" fill="black"/>
<path d="M70.2305 50.7488L187.066 167.563L206.538 148.095L89.7043 31.2786L70.2305 50.7488Z" fill="black"/>
<path d="M323.374 31.281L206.54 148.093L226.012 167.563L342.848 50.7488L323.374 31.281Z" fill="black"/>
<path d="M362.32 70.2166L245.486 187.031L264.957 206.501L381.794 89.6868L362.32 70.2166Z" fill="black"/>
<path d="M148.121 206.501L31.2853 323.313L50.7567 342.783L167.595 225.971L148.121 206.501Z" fill="black"/>
<path d="M187.066 245.439L70.2305 362.25L89.7019 381.721L206.54 264.909L187.066 245.439Z" fill="black"/>
<path d="M165.232 82.6012H192.77V-0.000587463H165.232V82.6012Z" fill="black"/>
<path d="M220.306 82.6012H247.847V-0.000587463H220.306V82.6012Z" fill="black"/>
<path d="M165.232 413H192.77V330.401H165.232V413Z" fill="black"/>
<path d="M220.306 413H247.847V330.401H220.306V413Z" fill="black"/>
<path d="M413.079 165.2H330.461V192.736H413.079V165.2Z" fill="black"/>
<path d="M413.079 220.268H330.461V247.802H413.079V220.268Z" fill="black"/>
<path d="M0 192.736H82.6174V165.2H0V192.736Z" fill="black"/>
<path d="M0 247.799H82.6174V220.268H0V247.799Z" fill="black"/>
<path d="M754.802 357.333H779.499V311.508H790.91L812.423 357.333H838.244L814.296 307.205C828.137 300.096 835.437 285.695 835.437 271.852V271.668C835.437 248.099 815.415 232.386 795.213 232.386H754.802V357.333ZM779.499 288.125V255.766H791.287C803.07 255.766 810.927 262.125 811.118 271.852C810.927 282.89 803.255 288.125 791.287 288.125H779.499ZM940.2 308.14C940.2 281.766 922.804 261.752 894.925 261.752C865.926 261.752 848.339 283.825 848.339 310.199C848.339 337.508 865.926 359.39 894.925 359.39C915.695 359.39 927.478 351.535 937.956 338.443L919.806 325.348C913.445 333.205 906.522 337.321 896.421 337.321C884.453 337.321 875.848 330.214 873.227 318.428H939.637C940.2 314.873 940.2 311.321 940.2 308.14ZM873.598 301.405C876.219 290.559 884.076 284.386 895.673 284.386C905.217 284.386 913.445 290.185 915.695 301.405H873.598ZM958.344 357.333H983.04V295.422C985.098 291.867 990.711 284.76 1002.49 284.76C1014.66 284.76 1021.77 293.363 1021.77 304.401V357.333H1046.09V304.401C1046.09 280.084 1031.49 261.939 1003.43 261.939C995.947 261.939 988.838 263.624 983.04 267.363V263.811H958.344V357.333ZM1067.6 357.333H1092.3V295.422C1094.35 291.867 1099.96 284.76 1111.75 284.76C1123.91 284.76 1131.02 293.363 1131.02 304.401V357.333H1155.34V304.401C1155.34 280.084 1140.75 261.939 1112.68 261.939C1105.2 261.939 1098.09 263.624 1092.3 267.363V263.811H1067.6V357.333ZM1264.41 308.14C1264.41 281.766 1247.01 261.752 1219.13 261.752C1190.14 261.752 1172.55 283.825 1172.55 310.199C1172.55 337.508 1190.14 359.39 1219.13 359.39C1239.9 359.39 1251.69 351.535 1262.17 338.443L1244.02 325.348C1237.65 333.205 1230.73 337.321 1220.63 337.321C1208.66 337.321 1200.05 330.214 1197.43 318.428H1263.85C1264.41 314.873 1264.41 311.321 1264.41 308.14ZM1197.81 301.405C1200.42 290.559 1208.28 284.386 1219.88 284.386C1229.42 284.386 1237.65 290.185 1239.9 301.405H1197.81ZM1287.97 330.962L1276.94 335.451C1284.23 349.478 1297.7 359.39 1319.41 359.39C1342.23 359.39 1356.07 346.111 1356.07 330.214C1356.07 314.313 1346.91 305.522 1322.4 300.096L1320.72 299.722C1306.87 296.731 1303.32 294.672 1303.32 289.623C1303.32 285.695 1308.18 281.766 1316.79 281.766C1326.33 281.766 1333.25 287.191 1335.49 294.298L1346.34 290.371L1357.01 286.069C1352.15 269.983 1338.11 261.752 1317.16 261.752C1292.65 261.752 1279.93 275.783 1279.93 290.933C1279.93 307.766 1291.53 315.811 1313.05 320.858L1315.48 321.42C1329.88 324.787 1332.12 326.47 1332.12 330.962C1332.12 336.199 1326.89 339.003 1318.85 339.003C1309.12 339.003 1302.01 333.579 1298.45 326.47L1287.97 330.962ZM1311.55 289.623C1311.55 289.997 1311.36 289.997 1311.92 289.997C1311.55 289.997 1311.55 289.811 1311.55 289.623Z" fill="black"/>
<path d="M495.693 39.6529V115.035C495.693 145.709 515.148 166.471 546.392 166.471C577.635 166.471 597.279 145.709 597.279 115.035V39.6529H572.584V115.035C572.584 131.866 562.855 142.157 546.392 142.157C529.928 142.157 520.389 131.866 520.389 115.035V39.6529H495.693ZM620.664 164.602H645.36V102.691C647.413 99.1338 653.026 92.0266 664.814 92.0266C676.974 92.0266 684.083 100.629 684.083 111.667V164.602H708.402V111.667C708.402 87.3498 693.813 69.2097 665.748 69.2097C658.268 69.2097 651.159 70.892 645.36 74.6313V71.0793H620.664V164.602ZM730.663 164.602H754.611V71.0793H730.663V164.602ZM730.292 53.3083H754.988V27.869H730.292V53.3083ZM832.81 164.602L867.984 71.0793H842.349L819.34 132.243L794.836 71.0793H769.2L807.181 164.602H832.81ZM967.511 115.409C967.511 89.0352 950.109 69.0182 922.236 69.0182C893.237 69.0182 875.65 91.0915 875.65 117.465C875.65 144.774 893.237 166.659 922.236 166.659C943 166.659 954.789 158.804 965.267 145.709L947.117 132.616C940.756 140.471 933.833 144.587 923.732 144.587C911.758 144.587 903.153 137.48 900.532 125.694H966.948C967.511 122.142 967.511 118.587 967.511 115.409ZM900.909 108.676C903.524 97.8247 911.381 91.6527 922.984 91.6527C932.528 91.6527 940.756 97.4508 943 108.676H900.909ZM986.026 164.602H1011.1V102.503L1039.91 91.2788V66.9613L1011.1 77.9991V71.0793H986.026V164.602ZM1061.05 138.228L1050.01 142.717C1057.31 156.744 1070.78 166.659 1092.48 166.659C1115.3 166.659 1129.15 153.377 1129.15 137.48C1129.15 121.581 1119.98 112.789 1095.47 107.364L1093.79 106.991C1079.95 103.999 1076.39 101.943 1076.39 96.8902C1076.39 92.9612 1081.26 89.0352 1089.86 89.0352C1099.4 89.0352 1106.32 94.4569 1108.57 101.564L1119.42 97.638L1130.09 93.3351C1125.22 77.2513 1111.19 69.0182 1090.23 69.0182C1065.73 69.0182 1053 83.0499 1053 98.1986C1053 115.035 1064.61 123.077 1086.12 128.127L1088.55 128.69C1102.95 132.056 1105.2 133.738 1105.2 138.228C1105.2 143.465 1099.96 146.27 1091.92 146.27C1082.19 146.27 1075.08 140.845 1071.53 133.738L1061.05 138.228ZM1084.62 96.8902C1084.62 97.2641 1084.43 97.2641 1085 97.2641C1084.62 97.2641 1084.62 97.0768 1084.62 96.8902ZM1149.16 164.602H1173.11V71.0793H1149.16V164.602ZM1148.79 53.3083H1173.48V27.869H1148.79V53.3083ZM1207.53 164.602H1231.48V93.7091H1257.48V71.0793H1231.48V42.6461H1207.53V71.0793H1188.82V93.7091H1207.53V164.602ZM1357.01 115.409C1357.01 89.0352 1339.61 69.0182 1311.74 69.0182C1282.74 69.0182 1265.15 91.0915 1265.15 117.465C1265.15 144.774 1282.74 166.659 1311.74 166.659C1332.5 166.659 1344.29 158.804 1354.76 145.709L1336.62 132.616C1330.26 140.471 1323.33 144.587 1313.23 144.587C1301.26 144.587 1292.65 137.48 1290.03 125.694H1356.45C1357.01 122.142 1357.01 118.587 1357.01 115.409ZM1290.41 108.676C1293.03 97.8247 1300.89 91.6527 1312.48 91.6527C1322.02 91.6527 1330.26 97.4508 1332.5 108.676H1290.41ZM1298.83 58.1718H1323.52L1342.23 27.1211H1315.66L1298.83 58.1718Z" fill="black"/>
<path d="M565.286 357.333H590.356V219.855H565.286V266.428C558.177 263.437 551.069 261.752 543.587 261.752C516.647 261.752 495.691 281.766 495.691 310.573C495.691 339.003 514.774 359.39 543.587 359.39C550.321 359.39 557.617 358.081 565.286 353.405V357.333ZM520.387 310.573C520.387 293.924 532.172 284.573 546.392 284.573C552.939 284.573 559.673 287.004 565.286 290.559V329.092C560.421 333.579 554.809 336.573 546.018 336.573C532.362 336.573 520.387 327.218 520.387 310.573ZM697.176 308.14C697.176 281.766 679.781 261.752 651.901 261.752C622.908 261.752 605.321 283.825 605.321 310.199C605.321 337.508 622.908 359.39 651.901 359.39C672.672 359.39 684.454 351.535 694.932 338.443L676.789 325.348C670.428 333.205 663.504 337.321 653.403 337.321C641.429 337.321 632.818 330.214 630.203 318.428H696.614C697.176 314.873 697.176 311.321 697.176 308.14ZM630.574 301.405C633.195 290.559 641.052 284.386 652.649 284.386C662.194 284.386 670.428 290.185 672.672 301.405H630.574Z" fill="black"/>
</svg>
